<?xml version="1.0" encoding="utf-8"?>
<!-- Generator: Adobe Illustrator 17.1.0, SVG Export Plug-In . SVG Version: 6.00 Build 0)  -->
<!DOCTYPE svg PUBLIC "-//W3C//DTD SVG 1.1//EN" "http://www.w3.org/Graphics/SVG/1.1/DTD/svg11.dtd">
<svg version="1.1" id="Layer_1" xmlns="http://www.w3.org/2000/svg" xmlns:xlink="http://www.w3.org/1999/xlink" x="0px" y="0px"
	 viewBox="0 0 72 72" enable-background="new 0 0 72 72" xml:space="preserve">
<g>
	<g>
		<rect x="18.6" y="23.6" fill="#234EA1" width="11.6" height="24.8"/>
		<rect x="30.2" y="23.6" fill="#F3F4F5" width="11.6" height="24.8"/>
		<rect x="41.8" y="23.6" fill="#EC1C24" width="11.6" height="24.8"/>
	</g>
	<g>
		<path fill="#253B56" d="M52.7,24c0.2,0,0.3,0.2,0.3,0.3v23.3c0,0.2-0.2,0.3-0.3,0.3H19.3c-0.2,0-0.3-0.2-0.3-0.3V24.3
			c0-0.2,0.2-0.3,0.3-0.3H52.7 M52.7,21H19.3c-1.8,0-3.3,1.5-3.3,3.3v23.3c0,1.8,1.5,3.3,3.3,3.3h33.3c1.8,0,3.3-1.5,3.3-3.3V24.3
			C56,22.5,54.5,21,52.7,21L52.7,21z"/>
	</g>
</g>
</svg>
