<?xml version="1.0" encoding="UTF-8"?>
<svg width="24px" height="24px" viewBox="0 0 24 24" version="1.1" xmlns="http://www.w3.org/2000/svg" xmlns:xlink="http://www.w3.org/1999/xlink">
    <!-- Generator: Sketch 61 (89581) - https://sketch.com -->
    <title>🔆 Icon / Annual Pass</title>
    <desc>Created with Sketch.</desc>
    <defs>
        <polygon id="path-1" points="2.51397671e-05 0.296170213 19.8344828 0.296170213 19.8344828 15.6595745 2.51397671e-05 15.6595745"></polygon>
    </defs>
    <g id="🔆-Icon-/-Annual-Pass" stroke="none" stroke-width="1" fill="none" fill-rule="evenodd">
        <g id="Group-10" transform="translate(2.000000, 4.000000)">
            <path d="M16.5583793,4.59342979 C16.2659655,4.43717447 15.9021724,4.42049362 15.5411379,4.48653617 C15.1780345,4.55155745 14.8183793,4.69555745 14.4725172,4.86577021 C14.1259655,5.03530213 13.8166552,5.25045106 13.5338966,5.51564255 C12.9818276,6.03342979 12.5466552,6.67547234 12.0987241,7.30662128 C12.1256207,7.31411064 12.1521724,7.32262128 12.179069,7.33011064 C12.9373448,7.54525957 13.7183793,7.69538723 14.4956207,7.70491915 C14.8828621,7.70798298 15.269069,7.6763234 15.6352759,7.58713191 C16.0004483,7.49828085 16.3480345,7.35325957 16.6294138,7.1323234 C16.9145862,6.91717447 17.1242414,6.62168511 17.2345862,6.29691915 C17.289069,6.13419574 17.3180345,5.96364255 17.3163103,5.79717447 C17.3156207,5.63172766 17.2794138,5.46900426 17.2238966,5.34679149 C17.0711379,5.02474894 16.8532069,4.7442383 16.5583793,4.59342979" id="Fill-1" fill="#253B56"></path>
            <path d="M12.085,10.4396596 L12.0894828,10.4451064 L12.0884483,10.44 C12.087069,10.4396596 12.0860345,10.4396596 12.085,10.4396596" id="Fill-3" fill="#253B56"></path>
            <g id="Group-7" transform="translate(0.000000, 0.044323)">
                <mask id="mask-2" fill="white">
                    <use xlink:href="#path-1"></use>
                </mask>
                <g id="Clip-6"></g>
                <path d="M17.8387586,5.7618383 C17.8308276,5.98890213 17.7828966,6.20915745 17.7035862,6.41681702 C17.543931,6.83111489 17.2566897,7.19366809 16.898069,7.4418383 C16.5425517,7.69715745 16.1304828,7.84490213 15.7191034,7.92081702 C15.3063448,7.99809362 14.8908276,8.00864681 14.4832414,7.98413617 C13.6663448,7.92966809 12.8791034,7.73562553 12.1142759,7.49698723 C12.0646207,7.48166809 12.0153103,7.46498723 11.9656552,7.44898723 C11.6742759,7.85681702 11.3718621,8.26260426 11.0356552,8.64354043 C11.0435862,8.65307234 10.5622069,9.13851915 10.5470345,9.15281702 C9.96944828,9.71928511 9.28531034,10.192817 8.53910345,10.5434553 C7.78910345,10.8947745 7.00668966,11.1398809 6.17944828,11.2886468 C5.76531034,11.3611574 5.33737931,11.3934979 4.90082759,11.3740936 C4.46462069,11.3574128 4.01806897,11.278434 3.58841379,11.1102638 C2.72324138,10.7912851 1.95910345,10.0518809 1.73082759,9.07690213 C1.70462069,8.95196596 1.68496552,8.82226383 1.68427586,8.67213617 C1.68703448,8.53800851 1.69772414,8.41171064 1.72186207,8.2939234 C1.76703448,8.05596596 1.83703448,7.83264681 1.93255172,7.6205617 C2.12255172,7.19707234 2.40703448,6.81988085 2.75255172,6.52064681 C3.10082759,6.22379574 3.50117241,6.00251915 3.91668966,5.86294468 C4.33186207,5.71996596 4.75772414,5.65051915 5.17634483,5.62532766 C5.59531034,5.59605106 6.00875862,5.6192 6.41462069,5.66345532 L6.71841379,5.69885957 C6.81910345,5.71179574 6.91875862,5.73188085 7.01910345,5.74651915 C7.22013793,5.77375319 7.41668966,5.81971064 7.61462069,5.8578383 C7.85565517,5.9085617 8.09462069,5.96575319 8.3322069,6.02668936 L8.30496552,6.25273191 C8.06082759,6.19928511 7.81531034,6.15366809 7.56806897,6.12064681 C6.79013793,6.01375319 5.99289655,6.00694468 5.25048276,6.16762553 C4.88082759,6.24898723 4.52668966,6.36881702 4.20910345,6.53562553 C3.89255172,6.70413617 3.6122069,6.91417872 3.38531034,7.16200851 C3.16531034,7.41596596 2.98737931,7.69749787 2.876,8.00285957 C2.8222069,8.15502979 2.77737931,8.31060426 2.75737931,8.46073191 C2.74565517,8.53596596 2.74255172,8.60677447 2.74117241,8.66873191 C2.74255172,8.71537021 2.75151724,8.78107234 2.76703448,8.8484766 C2.83082759,9.12524255 2.98841379,9.40949787 3.19565517,9.64132766 C3.40496552,9.87485957 3.6697931,10.0668596 3.97462069,10.2050723 C4.58772414,10.4801362 5.33462069,10.5553702 6.08462069,10.5066894 C6.46117241,10.4835404 6.84082759,10.4280511 7.22013793,10.3552 C7.45427586,10.3106043 7.68324138,10.2561362 7.90910345,10.1921362 C7.96531034,9.92524255 7.99772414,9.65800851 7.98496552,9.38941277 C7.98358621,9.36354043 7.98531034,9.33698723 7.98772414,9.31043404 C7.98944828,9.29375319 7.99634483,9.27741277 8.01772414,9.27196596 C8.03910345,9.26651915 8.05289655,9.27741277 8.06324138,9.29068936 C8.07531034,9.30634894 8.086,9.32268936 8.09634483,9.33937021 C8.14496552,9.41766809 8.19013793,9.49766809 8.2422069,9.5739234 C8.33841379,9.71554043 8.44875862,9.84694468 8.56668966,9.97290213 C8.63151724,9.94737021 8.69565517,9.92115745 8.75944828,9.8939234 C8.68703448,9.63928511 8.61496552,9.38566809 8.54324138,9.13239149 C8.53255172,9.13205106 8.52393103,9.13239149 8.51531034,9.13137021 C8.48531034,9.12728511 8.45462069,9.12490213 8.42531034,9.11843404 C8.39875862,9.11230638 8.39565517,9.1044766 8.40358621,9.08132766 C8.43013793,9.00030638 8.44806897,8.91826383 8.45875862,8.83588085 C8.50324138,8.49239149 8.47910345,8.15605106 8.40875862,7.82413617 C8.39186207,7.74481702 8.37531034,7.66549787 8.36048276,7.5858383 C8.35462069,7.55622128 8.35324138,7.52558298 8.35117241,7.49528511 C8.35013793,7.48371064 8.35013793,7.46873191 8.36565517,7.46396596 C8.38082759,7.45885957 8.39013793,7.47111489 8.396,7.48098723 C8.4097931,7.50549787 8.42462069,7.52966809 8.43462069,7.55554043 C8.47117241,7.65017872 8.50565517,7.74549787 8.54151724,7.84013617 C8.55737931,7.88302979 8.5722069,7.92626383 8.59117241,7.96779574 C8.62772414,8.04779574 8.66496552,8.12745532 8.70531034,8.20609362 C8.77910345,8.35043404 8.86496552,8.48864681 8.96496552,8.61937021 C9.03255172,8.70754043 9.10668966,8.79094468 9.19324138,8.86515745 C9.20875862,8.87843404 9.2097931,8.88388085 9.19668966,8.89988085 C9.18703448,8.91213617 9.17531034,8.92337021 9.16255172,8.93324255 C9.14186207,8.94924255 9.1197931,8.96422128 9.09634483,8.98124255 C9.09875862,8.99009362 9.10151724,8.99996596 9.10427586,9.00949787 C9.14565517,9.15315745 9.18668966,9.29681702 9.22772414,9.4404766 C9.22772414,9.4404766 9.22910345,9.44115745 9.23013793,9.44115745 C9.23082759,9.44149787 9.23186207,9.44149787 9.23462069,9.44149787 C9.23944828,9.43264681 9.24462069,9.42311489 9.24944828,9.4139234 C9.28806897,9.34005106 9.32634483,9.26617872 9.366,9.19264681 C9.37496552,9.17562553 9.37634483,9.16098723 9.37151724,9.14362553 C9.30186207,8.89817872 9.23289655,8.65273191 9.16393103,8.40762553 C9.03289655,7.94294468 8.90186207,7.47826383 8.77082759,7.01358298 C8.76806897,7.00302979 8.76496552,6.99281702 8.7622069,6.98260426 C8.74910345,6.98226383 8.7397931,6.98260426 8.73013793,6.9819234 C8.68531034,6.97851915 8.64013793,6.97681702 8.596,6.97102979 C8.5722069,6.96762553 8.54875862,6.95843404 8.52772414,6.9485617 C8.50427586,6.93766809 8.50358621,6.9284766 8.51048276,6.90430638 C8.53117241,6.83145532 8.55393103,6.75860426 8.57082759,6.68541277 C8.59841379,6.56626383 8.60910345,6.43009362 8.62703448,6.3419234 C8.62565517,6.34158298 8.65082759,6.10668936 8.65048276,5.95622128 C8.6497931,5.73834894 8.64289655,5.5218383 8.61841379,5.30668936 C8.60255172,5.16643404 8.58496552,5.02651915 8.56358621,4.88728511 C8.54668966,4.77630638 8.52531034,4.66600851 8.50255172,4.55605106 C8.49013793,4.4964766 8.47703448,4.43724255 8.46358621,4.37766809 C8.416,4.28609362 8.36427586,4.21017872 8.31324138,4.18158298 C8.14462069,4.08830638 7.85324138,4.15434894 7.75393103,4.1819234 L7.74324138,4.14413617 C7.84255172,4.1165617 8.126,4.02328511 8.22082759,3.85681702 C8.30565517,3.70805106 8.1797931,3.20251915 8.15082759,3.10073191 L8.186,3.09085957 C8.21496552,3.19264681 8.37393103,3.68898723 8.52462069,3.77273191 C8.69324138,3.86634894 8.98462069,3.80030638 9.08393103,3.77273191 L9.09462069,3.81051915 C8.99531034,3.83809362 8.71151724,3.93137021 8.61703448,4.09749787 C8.58703448,4.15026383 8.58358621,4.24762553 8.59255172,4.35588085 C8.59358621,4.3579234 8.59427586,4.35996596 8.59496552,4.36234894 C8.65255172,4.5165617 8.7097931,4.67111489 8.77255172,4.82362553 C8.82358621,4.9485617 8.88082759,5.07145532 8.93772414,5.19434894 C9.01875862,5.36864681 9.11117241,5.5378383 9.21151724,5.70362553 C9.29427586,5.8404766 9.38427586,5.97358298 9.48289655,6.1019234 C9.48875862,6.10941277 9.49531034,6.11622128 9.50151724,6.12371064 C9.50358621,6.12302979 9.50565517,6.12234894 9.50772414,6.12166809 C9.51737931,6.07843404 9.52875862,6.03588085 9.536,5.99264681 C9.56324138,5.83468936 9.55668966,5.67809362 9.54289655,5.5218383 C9.53875862,5.47485957 9.53565517,5.42754043 9.53289655,5.38022128 C9.5322069,5.37068936 9.53565517,5.3604766 9.53737931,5.34924255 C9.55634483,5.35366809 9.56186207,5.3659234 9.56772414,5.3764766 C9.58668966,5.41154043 9.60496552,5.44694468 9.62289655,5.48268936 C9.676,5.5899234 9.73255172,5.69511489 9.80255172,5.7938383 C9.87358621,5.8939234 9.95496552,5.98515745 10.0611724,6.05766809 C10.0849655,6.07366809 10.086,6.08115745 10.0642759,6.10226383 C10.0515172,6.11451915 10.0363448,6.12473191 10.0218621,6.13562553 C10.013931,6.14209362 10.0049655,6.14754043 9.99531034,6.15468936 C9.99806897,6.16490213 10.0008276,6.17443404 10.0035862,6.18396596 C10.0401379,6.31264681 10.1453103,6.63877447 10.1632414,6.72388085 C10.1691034,6.76507234 10.138069,6.82158298 10.1284138,6.83826383 C10.0877241,6.90839149 10.023931,6.94924255 9.936,6.95128511 C9.86255172,6.95298723 9.80668966,6.92302979 9.76427586,6.87366809 C9.75910345,6.86788085 9.75427586,6.86209362 9.74944828,6.85596596 C9.74806897,6.85664681 9.74703448,6.85732766 9.746,6.85800851 C9.88531034,7.34107234 10.0249655,7.82413617 10.1649655,8.30958298 C10.3487586,8.25851915 10.5297931,8.2084766 10.7111724,8.15809362 C10.758069,8.24490213 10.8087586,8.32898723 10.8625517,8.41034894 C11.1728966,8.08558298 11.4594483,7.73494468 11.7291034,7.37000851 C11.2870345,7.2178383 10.8532414,7.04796596 10.4194483,6.88728511 L10.3615172,6.6592 C10.8622069,6.84200851 11.3556552,7.03468936 11.8591034,7.19162553 C11.8649655,7.18345532 11.8708276,7.17528511 11.8766897,7.16711489 C12.3401379,6.53154043 12.7677241,5.8578383 13.3346207,5.27230638 C13.6146207,4.9805617 13.9635862,4.65613617 14.3187586,4.4539234 C14.6732414,4.25273191 14.986,4.10294468 15.4028966,4.00115745 C15.8142759,3.89971064 16.3428966,3.92354043 16.7704828,4.12302979 C17.2001379,4.31843404 17.5046207,4.68881702 17.7046207,5.06498723 C17.8197931,5.2992 17.8446207,5.53545532 17.8387586,5.7618383 M11.8849655,12.6302638 C11.8815172,12.6183489 11.8787586,12.6081362 11.8756552,12.597583 C11.7735862,12.2380936 11.8032414,12.3429447 11.7011724,11.9834553 C11.6725517,11.8833702 11.6349655,11.7866894 11.5832414,11.6951149 C11.4804828,11.5126468 11.3335862,11.3659234 11.138069,11.2576681 C10.9677241,11.1633702 10.7784138,11.1078809 10.578069,11.0748596 C10.5611724,11.0721362 10.5511724,11.077583 10.5397931,11.0874553 C10.4408276,11.1712 10.3504828,11.2617532 10.2725517,11.3611574 C10.1166897,11.559966 10.0256552,11.7757957 10.008069,12.0103489 C9.99703448,12.1601362 10.018069,12.3051574 10.058069,12.4471149 C10.1597931,12.8042213 10.1291034,12.6966468 10.2308276,13.0540936 C10.2335862,13.0643064 10.2366897,13.0745191 10.2397931,13.0857532 C9.63289655,13.2539234 9.03013793,13.4207319 8.42427586,13.5885617 C8.33255172,13.1739234 8.37082759,13.1712 8.23737931,12.6163064 C8.12910345,12.1638809 8.08565517,12.0300936 7.96013793,11.5562213 C7.94427586,11.5562213 7.82910345,11.1092426 7.82910345,11.1092426 C7.88875862,11.0912 8.02944828,11.0421787 8.10186207,11.0173277 C8.21806897,10.9774979 8.33944828,10.9325617 8.48565517,10.8753702 C9.4622069,10.4835404 10.3949655,9.87554043 11.1825517,9.11741277 C11.2366897,9.06532766 11.2901379,9.0125617 11.3432414,8.95911489 C11.4270345,9.03128511 11.5170345,9.09902979 11.613931,9.16200851 C11.5915172,9.22362553 11.5411724,9.26890213 11.4991034,9.31690213 C11.5742759,9.58209362 11.7028966,10.0416681 11.7863448,10.3402213 L11.876,10.3106043 C11.8691034,10.2993702 11.8691034,10.2874553 11.8753103,10.2717957 C11.9297931,10.1312 11.9866897,9.99128511 12.0353103,9.84932766 C12.1418621,9.53988085 12.2173793,9.22702979 12.2170345,8.90737021 C12.2170345,8.89409362 12.2187586,8.88013617 12.2222069,8.86685957 C12.2273793,8.84609362 12.243931,8.84098723 12.2594483,8.85596596 C12.2722069,8.86788085 12.2825517,8.88217872 12.2915172,8.8964766 C12.4301379,9.11877447 12.6094483,9.3124766 12.8097931,9.49154043 C12.9618621,9.62771064 13.1228966,9.75502979 13.2908276,9.87554043 C13.3128966,9.8912 13.3184138,9.9085617 13.3118621,9.93273191 C13.3022069,9.96779574 13.2866897,10.000817 13.2591034,10.0283915 C13.2356552,10.0518809 13.2084138,10.0726468 13.1791034,10.0978383 C13.1804828,10.1022638 13.1853103,10.119966 13.1853103,10.119966 L13.7584138,12.0845617 C13.7584138,12.0845617 13.7618621,12.1005617 13.763931,12.1097532 C13.1373793,12.2833702 12.5125517,12.4563064 11.8849655,12.6302638 M19.7946207,10.2268596 L17.3325517,1.15417872 C17.1649655,0.538689362 16.5146207,0.170008511 15.8904828,0.335795745 L0.868758621,4.30958298 C0.248758621,4.47332766 -0.127448276,5.11332766 0.0397931034,5.72745532 L2.50151724,14.8014979 C2.66875862,15.4169872 3.32048276,15.7829447 3.94013793,15.621583 L18.9594483,11.6457532 C19.583931,11.4816681 19.9625517,10.8416681 19.7946207,10.2268596" id="Fill-5" fill="#253B56" mask="url(#mask-2)"></path>
            </g>
            <path d="M17.2345172,6.29678298 C17.1241724,6.62154894 16.9145172,6.9170383 16.6293448,7.13218723 C16.3479655,7.3531234 16.0007241,7.49814468 15.6352069,7.58733617 C15.269,7.67618723 14.8831379,7.70784681 14.4955517,7.7051234 C13.7183103,7.69525106 12.9372759,7.5451234 12.179,7.32997447 C12.1521034,7.32282553 12.1255517,7.31431489 12.0986552,7.30682553 C12.5465862,6.6756766 12.9821034,6.03363404 13.5338276,5.51550638 C13.8165862,5.25031489 14.1258966,5.03550638 14.4724483,4.86563404 C14.8183103,4.69542128 15.1779655,4.5517617 15.541069,4.48674043 C15.9021034,4.42035745 16.2658966,4.43737872 16.5583103,4.59363404 C16.8531379,4.74410213 17.071069,5.02495319 17.2238276,5.34699574 C17.2793448,5.46886809 17.3158966,5.63193191 17.3162414,5.79737872 C17.3179655,5.96350638 17.289,6.1344 17.2345172,6.29678298 M16.7707241,4.16742128 C16.3427931,3.96793191 15.8141724,3.94410213 15.4031379,4.04554894 C14.9858966,4.14733617 14.6731379,4.2971234 14.319,4.49831489 C13.9634828,4.70052766 13.6145172,5.02495319 13.3345172,5.31669787 C12.7676207,5.90222979 12.3403793,6.57559149 11.876931,7.21150638 C11.871069,7.2196766 11.8648621,7.22750638 11.859,7.2356766 C11.3555517,7.07908085 10.8624483,6.88605957 10.3614138,6.70359149 L10.4193448,6.9316766 C10.8534828,7.09235745 11.286931,7.26222979 11.729,7.4144 C11.4593448,7.77899574 11.2203793,8.09116596 10.8627931,8.45474043 C10.0234828,9.30818723 9.42693103,9.63465532 8.71831034,9.95329362 C8.51693103,10.0435064 7.90934483,10.2361872 7.90934483,10.2361872 C7.90934483,10.2361872 7.45417241,10.3549957 7.22003448,10.3992511 C6.84106897,10.4724426 6.46106897,10.5279319 6.08451724,10.5510809 C5.33451724,10.5997617 4.58762069,10.5245277 3.97486207,10.2491234 C3.66968966,10.1109106 3.40486207,9.91925106 3.19555172,9.68571915 C2.98831034,9.45388936 2.83072414,9.16963404 2.76693103,8.89286809 C2.75141379,8.82546383 2.74244828,8.7597617 2.74141379,8.7131234 C2.74244828,8.65116596 2.74589655,8.58035745 2.75762069,8.50478298 C2.77727586,8.35465532 2.82210345,8.19908085 2.87589655,8.04725106 C2.98727586,7.74188936 3.1652069,7.46001702 3.3852069,7.2064 C3.61210345,6.95822979 3.89244828,6.74852766 4.209,6.58001702 C4.52658621,6.41286809 4.88106897,6.2930383 5.25072414,6.2116766 C5.99313793,6.05099574 6.79003448,6.05780426 7.56796552,6.16469787 C7.8152069,6.19805957 8.06072414,6.2436766 8.30486207,6.29678298 L8.33244828,6.07074043 C8.09451724,6.01014468 7.85555172,5.95295319 7.61486207,5.90188936 C7.41693103,5.86410213 7.22003448,5.81814468 7.019,5.79091064 C6.91865517,5.77627234 6.81934483,5.75618723 6.71831034,5.74325106 L6.41486207,5.70784681 C6.00865517,5.66359149 5.5952069,5.64044255 5.17624138,5.66971915 C4.75762069,5.69491064 4.33175862,5.76435745 3.91693103,5.90699574 C3.50106897,6.04691064 3.10072414,6.26818723 2.75244828,6.5650383 C2.40693103,6.86427234 2.12244828,7.24146383 1.9327931,7.66495319 C1.83693103,7.8770383 1.76693103,8.10035745 1.72175862,8.33831489 C1.69762069,8.45610213 1.68727586,8.5824 1.68417241,8.71652766 C1.6852069,8.86665532 1.70451724,8.99635745 1.73072414,9.12129362 C1.95934483,10.0962723 2.72348276,10.8356766 3.58831034,11.1546553 C4.01796552,11.3228255 4.46486207,11.4018043 4.90072414,11.4184851 C5.33727586,11.4378894 5.7652069,11.4055489 6.17934483,11.3326979 C7.00658621,11.1839319 7.789,10.9388255 8.53934483,10.5878468 C9.2852069,10.2372085 9.96934483,9.7636766 10.546931,9.19720851 C10.5621034,9.18291064 11.0434828,8.6971234 11.0355517,8.68759149 C11.3717586,8.30699574 11.6741724,7.90120851 11.9658966,7.49337872 C12.0152069,7.50937872 12.0645172,7.52605957 12.1145172,7.54137872 C12.8793448,7.78001702 13.6662414,7.97371915 14.4831379,8.02852766 C14.891069,8.0530383 15.3062414,8.04248511 15.719,7.96486809 C16.1303793,7.88929362 16.5424483,7.74154894 16.8979655,7.48588936 C17.2565862,7.23805957 17.5438276,6.87550638 17.7034828,6.46120851 C17.7827931,6.25354894 17.8307241,6.03329362 17.8386552,5.80622979 C17.8445172,5.57984681 17.8196897,5.34359149 17.7048621,5.1090383 C17.5045172,4.73320851 17.2003793,4.36248511 16.7707241,4.16742128" id="Fill-8" fill="#3494FF"></path>
        </g>
    </g>
</svg>