<?xml version="1.0" encoding="UTF-8"?>
<svg width="24px" height="24px" viewBox="0 0 24 24" version="1.1" xmlns="http://www.w3.org/2000/svg" xmlns:xlink="http://www.w3.org/1999/xlink">
    <!-- Generator: Sketch 61 (89581) - https://sketch.com -->
    <title>🔆 Icon / Tickets</title>
    <desc>Created with Sketch.</desc>
    <g id="🔆-Icon-/-Tickets" stroke="none" stroke-width="1" fill="none" fill-rule="evenodd">
        <path d="M21.9745596,8.50774125 C21.9355362,8.41882311 21.888096,8.34130473 21.8299435,8.2759461 L18.3277842,4.35138809 C18.2834046,4.30122914 18.2306083,4.25487011 18.1678647,4.21763089 C18.0354912,4.12719278 17.8587382,4.13935252 17.7378421,4.24651029 L17.7225388,4.26094998 C17.5197702,4.4418262 17.2718568,4.56418365 17.0086401,4.61586257 C16.4676686,4.72682025 15.9052724,4.53986416 15.550236,4.14695237 C15.545645,4.13783256 15.5334024,4.12263287 15.527281,4.11579302 C15.420158,3.99647551 15.2434049,3.96531616 15.1018494,4.04131457 C15.0398711,4.07551386 14.9909005,4.10971314 14.9457558,4.14695237 C14.9442255,4.14847233 14.9434603,4.14847233 14.94193,4.14847233 L12.7612103,6.07047218 C12.8415526,6.31974697 13.0749279,6.50822303 13.3511524,6.51126297 C13.9525719,6.5143029 14.4828311,6.9163345 14.6175001,7.46732299 L14.6427505,7.57144082 L14.6427505,7.67935856 L14.6427505,17.7894273 L21.6248793,11.6350759 C21.6723195,11.5940368 21.7128732,11.5491977 21.753427,11.4899189 C21.8444816,11.3622416 21.8352996,11.1836453 21.7297069,11.0620479 C21.1764927,10.4312611 21.2392362,9.46380128 21.8551939,8.9219326 C21.8628455,8.91889266 21.8773837,8.90369298 21.8819747,8.89989306 C21.9936887,8.80185511 22.0296515,8.64301843 21.9745596,8.50774125" id="Fill-1" fill="#3494FF"></path>
        <path d="M11.4278086,12.0128905 C11.2313018,12.3244153 10.8434986,12.4481309 10.4467633,12.3698771 C10.5747904,12.6113461 10.6469918,12.8863525 10.6469918,13.1814813 C10.6469918,14.1421405 9.87064101,14.9179715 8.91118161,14.9179715 C7.95469959,14.9179715 7.17686013,14.1421405 7.17686013,13.1814813 C7.17686013,12.8863525 7.24980584,12.6113461 7.377833,12.3698771 C6.981842,12.4481309 6.59403879,12.3244153 6.39753198,12.0128905 C6.12733511,11.591065 6.32607495,10.9791944 6.84264968,10.6490377 C7.35996875,10.3203715 7.9971272,10.4001159 8.26732406,10.823432 C8.40279467,11.03509 8.41991458,11.2951909 8.34026978,11.539641 C8.52040102,11.4785285 8.71244177,11.4449911 8.91118161,11.4449911 C9.11215449,11.4449911 9.30493958,11.4785285 9.48432648,11.539641 C9.40393733,11.2951909 9.42180159,11.03509 9.55652785,10.823432 C9.82746906,10.4001159 10.4638832,10.3203715 10.9812022,10.6490377 C11.497777,10.9791944 11.6965168,11.591065 11.4278086,12.0128905 M13.4487025,7.24983956 C12.6284355,7.24313209 11.9585259,6.56865844 11.9570372,5.76674281 C11.9585259,5.75779951 11.9585259,5.74065819 11.9585259,5.73320544 C11.9585259,5.58638632 11.8654829,5.45968961 11.7285236,5.41050148 C11.638458,5.37994521 11.5513697,5.36653026 11.4642815,5.36653026 L6.32905233,5.37398301 C6.2642944,5.37398301 6.19879213,5.38516213 6.12733511,5.40602983 C5.97772197,5.44403884 5.87276947,5.58191467 5.87276947,5.73618654 L5.87425815,5.75779951 C5.87574684,6.02460787 5.80577851,6.28247293 5.67477397,6.51052701 C5.40904316,6.97930483 4.91033269,7.26772615 4.39003625,7.2692167 C4.37961543,7.26772615 4.36249552,7.26623561 4.35505208,7.26623561 C4.19650681,7.26623561 4.05880317,7.37653627 4.02381901,7.53080814 C4.00744344,7.59490177 4.00148869,7.6530332 4.00148869,7.71190991 C4,7.71265518 4,7.71414573 4,7.71414573 L4.02381901,17.6695259 C4.02381901,17.7447986 4.03498417,17.8282694 4.06252489,17.913976 C4.11239594,18.0622856 4.23744573,18.1599166 4.395991,18.1465017 C5.22146848,18.1457564 5.89733282,18.8179942 5.90179888,19.6445039 C5.90328757,19.8002664 6.00824007,19.9329253 6.15785321,19.9739154 C6.22931023,19.9910567 6.29481251,20 6.35957043,20 L11.4962883,19.9895662 C11.5833765,19.9880756 11.6719535,19.9754059 11.7590417,19.9418686 C11.8930236,19.8934257 11.9860666,19.766729 11.9860666,19.6243815 C11.9875553,19.3650259 12.0560349,19.1086514 12.1855508,18.8880501 C12.4483042,18.4289608 12.9380826,18.1397942 13.4643338,18.1293604 C13.5849175,18.1263793 13.6958247,18.0607951 13.7538836,17.9594377 C13.7657931,17.93857 13.7754696,17.9154665 13.782913,17.8938536 C13.808965,17.8133639 13.8208745,17.7410722 13.8238519,17.6695259 L13.8238519,17.6486582 L13.8238519,7.50919517 C13.7858904,7.35939495 13.6057591,7.25133011 13.4487025,7.24983956" id="Fill-4" fill="#253B56"></path>
    </g>
</svg>