<svg width="16" height="17" viewBox="0 0 16 17" fill="none" xmlns="http://www.w3.org/2000/svg">
<path fill-rule="evenodd" clip-rule="evenodd" d="M12.8623 10.8005C12.6731 11.1295 12.328 11.3139 11.9726 11.3139C11.7994 11.3139 11.6234 11.2708 11.462 11.1782L7.48631 8.88954C7.16909 8.7045 6.97292 8.36711 6.97292 8.0005V2.7372C6.97292 2.17163 7.43274 1.7125 7.99831 1.7125C8.56526 1.7125 9.0237 2.17163 9.0237 2.7372V7.40711L12.4853 9.39946C12.9764 9.68259 13.1454 10.3101 12.8623 10.8005ZM7.9993 0C3.58191 0 0 3.5833 0 8C0 12.4174 3.58191 16.0014 7.9993 16.0014C12.4181 16.0014 16 12.4174 16 8C16 3.5833 12.4181 0 7.9993 0Z" fill="#0046E4"/>
</svg>
